<svg xmlns="http://www.w3.org/2000/svg" viewBox="0 0 240 150" fill="none">
  <defs>
    <linearGradient id="gift-lid" x1="30" y1="50" x2="234" y2="106" gradientUnits="userSpaceOnUse">
      <stop stop-color="#e3ccfd" />
      <stop offset="1" stop-color="#a877f2" />
    </linearGradient>
    <linearGradient id="gift-lid-left" x1="30" y1="78" x2="134" y2="122" gradientUnits="userSpaceOnUse">
      <stop stop-color="#bd8cf5" />
      <stop offset="1" stop-color="#9560ed" />
    </linearGradient>
    <linearGradient id="gift-lid-right" x1="134" y1="78" x2="234" y2="122" gradientUnits="userSpaceOnUse">
      <stop stop-color="#8a4ce9" />
      <stop offset="1" stop-color="#6a29de" />
    </linearGradient>
    <linearGradient id="gift-left" x1="30" y1="94" x2="134" y2="168" gradientUnits="userSpaceOnUse">
      <stop stop-color="#c08cf5" />
      <stop offset="1" stop-color="#8b51eb" />
    </linearGradient>
    <linearGradient id="gift-right" x1="134" y1="94" x2="234" y2="168" gradientUnits="userSpaceOnUse">
      <stop stop-color="#9257ed" />
      <stop offset="1" stop-color="#5e18d6" />
    </linearGradient>
    <linearGradient id="gift-ribbon" x1="74" y1="62" x2="120" y2="156" gradientUnits="userSpaceOnUse">
      <stop stop-color="#fdfbff" />
      <stop offset="1" stop-color="#e0cafb" />
    </linearGradient>
    <linearGradient id="gift-bow" x1="60" y1="10" x2="206" y2="72" gradientUnits="userSpaceOnUse">
      <stop stop-color="#ffffff" />
      <stop offset="1" stop-color="#e2ccfc" />
    </linearGradient>
  </defs>
  <path d="M30 94 134 122v46L30 140Z" fill="url(#gift-left)" />
  <path d="M134 122 234 94v46l-100 28Z" fill="url(#gift-right)" />
  <path d="M30 78 134 106v16L30 94Z" fill="url(#gift-lid-left)" />
  <path d="M134 106 234 78v16l-100 28Z" fill="url(#gift-lid-right)" />
  <path d="M30 78 134 50l100 28-100 28Z" fill="url(#gift-lid)" />
  <path d="M30 94 134 122v9L30 103Z" fill="#2c0a6e" opacity="0.16" />
  <path d="M134 122 234 94v9l-100 28Z" fill="#2c0a6e" opacity="0.22" />
  <path d="M134 50 30 78l7 2 101-27Z" fill="#ffffff" opacity="0.42" />
  <path d="M134 50 234 78l-7 2-98-27Z" fill="#ffffff" opacity="0.2" />
  <path d="M74 106 90 110v46l-16-4Z" fill="url(#gift-ribbon)" />
  <path d="M74 90 90 94v16l-16-4Z" fill="url(#gift-ribbon)" opacity="0.86" />
  <path d="M74 90 90 94l102-28-16-4Z" fill="url(#gift-ribbon)" />
  <path d="M112 64c-6 12-16 22-28 28l22 6c8-8 13-17 15-27Z" fill="url(#gift-bow)" opacity="0.92" />
  <path d="M154 64c6 12 16 20 28 25l-22 7c-8-8-13-18-15-28Z" fill="url(#gift-bow)" opacity="0.92" />
  <path d="M130 56C108 28 80 10 60 18c-18 8-14 30 12 40 16 6 36 8 58 6Z" fill="url(#gift-bow)" />
  <path d="M136 56c22-28 50-46 70-38 18 8 14 30-12 40-16 6-36 8-58 6Z" fill="url(#gift-bow)" />
  <path d="M116 50C100 34 82 24 68 27c-11 3-10 15 4 22 10 5 25 6 44 1Z" fill="#a875f1" opacity="0.4" />
  <path d="M150 50c16-16 34-26 48-23 11 3 10 15-4 22-10 5-25 6-44 1Z" fill="#8b4fe9" opacity="0.32" />
  <path d="M133 42c14 0 24 7 24 15s-10 15-24 15-24-7-24-15 10-15 24-15Z" fill="url(#gift-bow)" />
  <path d="M133 48c9 0 15 4 15 9s-6 9-15 9-15-4-15-9 6-9 15-9Z" fill="#b184f3" opacity="0.28" />
</svg>
